<?xml version="1.0" standalone="no"?>
<!DOCTYPE svg PUBLIC "-//W3C//DTD SVG 20010904//EN"
 "http://www.w3.org/TR/2001/REC-SVG-20010904/DTD/svg10.dtd">
<svg version="1.0" xmlns="http://www.w3.org/2000/svg"
 width="962.000000pt" height="962.000000pt" viewBox="0 0 962.000000 962.000000"
 preserveAspectRatio="xMidYMid meet">
<metadata>
Created by potrace 1.11, written by Peter Selinger 2001-2013
</metadata>
<g transform="translate(0.000000,962.000000) scale(0.100000,-0.100000)"
fill="#000000" stroke="none">
<path d="M4455 9610 c-969 -78 -1859 -424 -2616 -1016 -554 -433 -1018 -1003
-1338 -1641 -185 -371 -335 -813 -415 -1228 -65 -338 -91 -660 -83 -1025 11
-489 85 -927 232 -1377 30 -92 55 -170 55 -173 0 -3 -31 -16 -70 -29 -38 -12
-72 -26 -74 -30 -6 -9 91 -31 139 -31 18 0 37 -6 43 -12 5 -7 29 -58 52 -113
54 -129 191 -402 265 -530 361 -623 880 -1177 1481 -1582 1391 -938 3180
-1080 4701 -374 865 401 1601 1061 2098 1881 663 1094 859 2424 541 3673 -421
1652 -1707 2973 -3346 3436 -264 74 -527 125 -810 156 -170 19 -691 28 -855
15z m880 -169 c555 -66 1047 -211 1531 -450 1455 -717 2419 -2115 2580 -3741
22 -224 22 -648 0 -875 -86 -866 -397 -1673 -906 -2350 -156 -207 -252 -318
-440 -505 -187 -188 -298 -284 -505 -440 -954 -718 -2169 -1039 -3365 -889
-1140 142 -2175 692 -2931 1557 -96 110 -260 317 -302 382 l-16 25 267 1 c294
1 438 16 677 74 121 29 362 108 417 136 16 9 33 13 36 9 4 -4 45 -313 92 -688
l85 -682 135 -81 c74 -45 136 -80 138 -79 2 2 41 266 87 586 46 321 86 596 89
611 5 25 -1 31 -80 79 -47 28 -87 49 -89 48 -1 -2 -31 -215 -66 -472 -44 -320
-66 -460 -71 -440 -4 15 -35 262 -68 548 -39 339 -65 523 -73 528 -6 5 -36 23
-66 42 l-54 33 74 37 c40 21 102 55 137 76 l63 38 102 -86 c224 -188 575 -392
847 -491 346 -127 659 -182 1035 -182 294 0 522 31 791 107 95 26 150 36 209
37 44 1 124 8 178 16 l97 14 0 56 0 55 112 60 c255 136 478 304 694 519 216
217 370 421 517 689 l65 119 54 -65 c290 -353 404 -966 297 -1597 -23 -135
-68 -325 -101 -427 -21 -63 -22 -70 -7 -62 26 13 218 222 300 324 821 1031
849 2496 79 4035 -393 787 -996 1580 -1704 2242 l-169 157 -155 -150 c-174
-168 -380 -349 -399 -349 -6 0 -64 13 -127 30 -275 71 -495 94 -809 87 -246
-5 -412 -25 -602 -71 -55 -13 -104 -21 -110 -16 -134 105 -228 175 -328 243
-114 79 -334 219 -384 246 -21 11 -25 6 -83 -108 -69 -135 -161 -277 -249
-384 -104 -126 -126 -143 -224 -172 -160 -46 -288 -117 -372 -205 -22 -23 -70
-62 -106 -86 -99 -66 -170 -159 -324 -424 -43 -74 -110 -184 -149 -245 -38
-60 -97 -165 -131 -231 l-61 -122 -19 32 c-14 24 -19 27 -22 14 -2 -9 3 -31
12 -48 15 -29 15 -37 1 -100 -9 -38 -16 -89 -16 -114 0 -34 -4 -46 -15 -46
-19 0 -19 -17 0 -50 22 -39 18 -88 -16 -158 -122 -260 -251 -670 -304 -972
-38 -218 -48 -354 -42 -564 5 -202 20 -308 64 -465 l26 -93 -24 -20 c-52 -41
-216 -132 -331 -185 -137 -62 -369 -156 -373 -151 -10 10 -101 301 -135 430
-356 1376 -75 2825 770 3963 441 594 1059 1104 1725 1420 524 249 1073 396
1665 445 183 15 683 4 875 -19z m-1987 -1541 c166 -85 323 -181 464 -285 122
-90 314 -270 379 -355 l34 -45 -36 27 c-93 71 -359 146 -655 184 -44 5 -60 14
-114 62 -35 31 -75 73 -90 94 l-28 38 -26 -53 c-44 -91 -39 -89 -249 -91
l-185 -1 74 77 c83 87 199 240 259 340 22 37 44 68 48 68 5 0 61 -27 125 -60z
m3098 -465 c155 -154 339 -345 409 -425 886 -1006 1415 -2059 1560 -3105 26
-185 32 -621 11 -805 -56 -487 -207 -909 -460 -1289 -82 -123 -284 -376 -293
-367 -3 2 13 60 35 128 191 590 167 1227 -63 1677 -123 241 -282 400 -460 459
-249 84 -491 -27 -634 -288 l-30 -54 -6 30 c-19 84 -29 118 -62 219 -78 240
-199 452 -338 590 -142 142 -286 205 -467 205 -138 0 -282 -42 -377 -109 -16
-12 -32 -21 -35 -21 -3 0 -6 55 -6 123 0 143 -16 221 -66 325 -108 225 -391
343 -639 268 -28 -9 -83 -36 -123 -62 -79 -50 -117 -57 -169 -31 -69 36 -147
156 -177 274 -28 108 -18 249 20 294 19 21 18 39 -2 39 -9 0 -26 -23 -41 -56
-63 -139 -11 -403 107 -536 80 -92 176 -101 295 -30 86 52 119 63 220 69 152
10 274 -36 381 -143 115 -115 169 -275 162 -484 -1 -60 -3 -110 -2 -110 0 0
51 18 113 40 269 96 456 87 636 -30 83 -54 206 -183 277 -290 97 -148 216
-405 265 -575 8 -27 16 -56 19 -64 3 -8 23 11 53 50 70 93 192 203 264 239 92
45 170 56 259 36 73 -16 178 -67 178 -86 0 -18 -69 -148 -135 -257 -201 -328
-504 -641 -830 -858 -109 -72 -311 -187 -350 -199 -18 -5 -26 5 -59 79 -170
377 -520 768 -928 1036 -139 90 -370 210 -529 275 -116 46 -335 117 -402 129
-21 4 -39 10 -41 14 -3 3 7 45 21 91 33 111 38 267 10 298 -18 20 -18 27 -2
209 24 262 12 394 -41 444 l-23 22 20 -39 c28 -53 22 -154 -25 -392 -40 -202
-44 -266 -20 -300 18 -26 14 -63 -18 -182 -25 -90 -51 -146 -77 -160 -20 -10
-61 -14 -61 -5 0 2 14 34 32 69 l31 64 -18 48 c-51 133 -216 223 -465 254
-217 26 -481 -6 -625 -76 -55 -27 -70 -44 -39 -44 11 0 14 -5 10 -16 -4 -9
-11 -36 -17 -60 -12 -48 -22 -53 -51 -27 -23 21 -24 92 -2 176 22 84 38 112
105 182 77 81 110 162 138 345 18 114 18 130 5 130 -7 0 -17 -28 -24 -67 -18
-99 -57 -227 -84 -282 -14 -26 -46 -64 -73 -86 -58 -46 -78 -69 -102 -115 -56
-105 -78 -258 -47 -319 8 -15 31 -38 50 -52 20 -13 36 -31 36 -40 0 -31 -129
-396 -183 -515 -93 -208 -200 -369 -318 -479 -54 -49 -66 -56 -91 -51 -33 7
-181 74 -247 113 l-44 25 150 77 c191 99 313 183 402 276 80 85 109 131 91
149 -8 8 -14 6 -22 -9 -66 -116 -307 -265 -607 -375 -102 -37 -117 -40 -139
-28 -29 15 -165 148 -209 204 l-32 40 95 27 c209 59 410 157 519 255 58 52 31
62 -41 16 -123 -79 -301 -138 -507 -168 -57 -9 -112 -16 -120 -16 -9 0 -27 19
-41 43 -28 49 -91 208 -100 252 l-7 31 108 12 c59 7 149 23 199 36 99 27 221
73 230 87 14 24 -14 24 -109 -1 -122 -32 -301 -60 -386 -60 -68 0 -64 -4 -81
100 -19 122 -19 122 59 160 90 43 86 61 -10 53 l-70 -6 3 133 3 134 50 14 c30
9 100 15 177 16 137 1 150 7 101 45 -45 36 -126 54 -225 49 -82 -4 -88 -3 -88
15 0 29 40 259 47 270 14 24 187 -17 248 -59 24 -16 41 -22 47 -16 26 26 -86
116 -195 158 -39 15 -73 29 -75 30 -5 3 58 227 97 344 45 135 129 347 167 421
26 53 26 55 -3 109 -2 3 54 6 125 7 145 2 225 19 231 49 5 30 32 54 60 55 18
1 11 5 -24 14 -66 19 -119 42 -185 83 -65 40 -140 110 -140 131 0 29 102 220
202 379 57 89 145 233 196 320 122 205 175 271 265 329 40 25 100 72 135 104
111 101 281 173 486 206 160 25 423 14 706 -30 547 -86 620 -117 805 -346 30
-37 55 -73 55 -78 0 -18 -200 -47 -327 -48 -88 0 -123 -3 -123 -12 0 -31 289
-36 470 -9 499 76 1093 372 1624 809 l68 57 32 -23 c17 -12 158 -148 312 -302z
m-4796 -1531 c6 -12 -51 -30 -117 -37 -50 -6 -53 -5 -53 17 0 21 27 122 37
139 4 7 121 -97 133 -119z m1552 -1764 c140 -13 281 -50 368 -96 79 -41 150
-113 150 -151 0 -30 -126 -276 -209 -408 -201 -318 -476 -614 -757 -812 -332
-236 -703 -385 -1130 -454 -99 -16 -192 -22 -399 -26 -171 -3 -266 -2 -260 4
6 6 71 34 145 63 832 328 1085 502 1293 890 89 165 195 454 291 790 l44 155
64 18 c59 16 178 33 258 36 19 0 83 -4 142 -9z m913 -507 c664 -180 1239 -575
1594 -1097 125 -183 231 -415 231 -503 l0 -30 -100 -16 c-123 -21 -153 -21
-218 -2 -36 11 -57 24 -69 43 -67 110 -116 177 -177 241 -66 68 -223 194 -295
237 -26 15 -31 25 -31 54 0 41 -21 77 -38 66 -7 -4 -12 -18 -12 -32 0 -13 -5
-24 -11 -24 -12 0 -142 82 -182 116 l-27 23 70 7 c69 6 88 17 52 28 -10 3 -94
10 -186 16 -93 5 -171 12 -174 15 -8 7 37 53 76 77 37 23 38 45 1 39 -33 -4
-110 -45 -149 -78 l-34 -28 -185 -5 c-102 -3 -187 -4 -189 -4 -2 1 16 33 39
70 51 83 114 217 124 262 5 25 3 32 -9 32 -9 0 -16 -6 -16 -13 0 -43 -220
-355 -255 -362 -11 -2 -103 -11 -205 -20 -102 -9 -200 -19 -219 -22 -32 -5
-29 -1 65 93 173 174 264 341 264 487 0 59 -24 66 -35 10 -25 -139 -185 -346
-393 -508 -49 -38 -92 -77 -95 -86 -3 -13 -33 -18 -163 -28 -88 -6 -188 -14
-224 -16 l-65 -5 35 27 c191 153 365 323 493 483 59 72 185 257 279 406 l26
41 77 6 c47 3 90 13 113 25 42 23 40 23 217 -25z m-2881 -219 c31 -61 76 -139
102 -174 35 -48 43 -65 32 -71 -7 -5 -16 -9 -19 -9 -3 0 -55 -7 -115 -15 -201
-29 -437 -46 -711 -52 -150 -3 -273 -4 -273 -1 0 3 46 23 102 43 324 118 647
265 763 349 33 24 61 42 62 42 1 -1 26 -51 57 -112z m253 -350 c116 -112 275
-217 426 -281 45 -19 85 -38 89 -42 13 -11 -146 -110 -302 -187 -135 -67 -398
-182 -654 -285 l-108 -44 -24 30 c-41 52 -183 295 -259 445 -76 151 -155 324
-155 340 0 6 50 10 118 10 217 0 649 34 752 59 19 5 40 9 47 10 6 1 38 -24 70
-55z"/>
<path d="M4585 9279 c-3 -8 -4 -309 -3 -669 l3 -655 108 -3 107 -3 0 281 0
280 115 0 115 0 0 -285 0 -285 110 0 110 0 0 664 0 665 -110 3 -110 3 0 -282
0 -283 -115 0 -115 0 0 285 0 285 -37 0 c-21 0 -68 3 -105 6 -53 5 -69 4 -73
-7z"/>
<path d="M5395 9242 c-9 -9 -5 -1321 3 -1326 7 -4 188 -46 199 -46 2 0 3 112
3 249 l0 249 58 -14 c134 -32 244 -11 291 55 43 61 51 104 51 290 0 190 -10
250 -54 320 -32 50 -100 110 -152 133 -48 21 -391 98 -399 90z m277 -253 c67
-15 94 -32 107 -71 14 -38 14 -308 1 -342 -12 -34 -43 -40 -115 -24 l-60 13
-3 218 c-1 135 1 217 7 217 6 0 34 -5 63 -11z"/>
<path d="M4028 9213 l-158 -27 0 -669 c0 -537 3 -668 13 -664 7 2 54 10 105
17 l92 13 0 248 0 249 23 5 c12 2 49 9 81 15 165 28 269 131 296 291 13 84 13
270 -1 345 -15 81 -50 138 -105 170 -65 38 -148 40 -346 7z m217 -198 c24 -24
25 -28 25 -182 0 -213 -8 -226 -152 -246 l-38 -6 0 219 0 219 38 6 c20 4 44 8
52 10 37 7 53 3 75 -20z"/>
<path d="M7165 2424 c-66 -46 -123 -89 -128 -96 -6 -10 -177 -1400 -177 -1439
0 -6 38 16 84 48 l83 58 13 128 13 129 73 50 c40 28 86 59 102 70 l30 19 13
-106 c7 -58 16 -105 19 -105 4 0 46 27 93 61 73 50 86 64 82 82 -3 12 -41 276
-85 587 -45 311 -84 572 -88 581 -6 13 -28 1 -127 -67z m30 -579 c19 -143 35
-265 35 -271 0 -5 -34 -34 -77 -63 l-76 -53 6 43 c3 24 20 177 39 339 18 162
34 288 35 280 1 -8 18 -132 38 -275z"/>
<path d="M6675 2132 l-90 -47 -3 -662 c-1 -449 1 -663 8 -663 6 0 51 20 100
45 l90 45 0 665 c0 366 -3 665 -7 665 -5 -1 -48 -22 -98 -48z"/>
<path d="M3190 1989 c0 -6 -43 -280 -95 -608 -52 -329 -95 -608 -95 -619 0
-16 16 -26 82 -51 45 -18 86 -30 92 -28 6 2 18 51 26 108 12 81 19 103 30 101
8 -1 60 -19 116 -40 l101 -36 12 -96 c22 -173 9 -153 122 -195 55 -21 101 -36
103 -34 3 5 -191 1378 -198 1394 -3 9 -270 115 -289 115 -4 0 -7 -5 -7 -11z
m187 -656 c22 -170 39 -310 37 -312 -3 -4 -142 45 -160 57 -8 5 1 89 29 285
23 152 44 277 47 277 3 0 24 -138 47 -307z"/>
<path d="M6188 1937 c-139 -48 -236 -144 -280 -276 -21 -63 -22 -87 -26 -465
-4 -426 2 -510 41 -567 40 -58 71 -74 145 -74 164 0 326 119 383 280 27 77 41
355 18 355 -8 -1 -52 -15 -99 -33 l-85 -32 -5 -135 c-3 -84 -10 -144 -18 -158
-18 -32 -71 -62 -109 -62 -63 0 -63 -1 -63 450 0 380 2 408 20 448 15 33 29
47 62 62 54 25 63 25 88 0 17 -17 20 -33 20 -118 0 -54 2 -101 5 -104 3 -2 47
10 98 27 l92 32 3 88 c8 251 -94 351 -290 282z"/>
<path d="M3770 1135 c0 -366 3 -665 6 -665 3 0 124 -23 268 -50 145 -28 266
-50 269 -50 4 0 7 44 7 98 l0 99 -147 27 c-82 15 -156 30 -165 32 -17 5 -18
43 -20 572 l-3 566 -85 18 c-47 9 -95 17 -107 18 l-23 0 0 -665z"/>
<path d="M5640 1766 l-65 -11 -3 -375 -3 -375 -99 354 c-54 194 -101 356 -104
358 -3 3 -63 -3 -133 -13 l-128 -19 -3 -660 c-1 -362 1 -662 6 -667 4 -4 35
-3 68 2 32 6 74 13 91 16 l33 5 2 447 3 447 118 -425 c66 -234 121 -427 123
-429 3 -3 119 12 187 25 l27 6 0 664 0 664 -27 -1 c-16 -1 -57 -6 -93 -13z"/>
<path d="M4410 1027 l0 -664 167 -6 c91 -4 220 -7 285 -7 l119 0 -3 98 -3 97
-177 3 -178 2 0 191 0 190 143 -2 142 -1 3 95 3 94 -47 7 c-26 3 -91 6 -145 6
l-99 0 0 181 0 182 180 -8 180 -7 0 99 0 100 -152 6 c-83 4 -211 7 -285 7
l-133 0 0 -663z"/>
<path d="M6076 7234 c-10 -40 -110 -132 -203 -187 -171 -100 -508 -225 -842
-311 l-166 -43 67 -7 c181 -20 478 54 927 230 90 36 168 61 172 57 8 -9 41
-200 61 -353 19 -150 16 -542 -5 -675 -53 -323 -153 -563 -312 -745 -26 -30 0
-7 58 51 378 383 450 761 301 1599 -2 14 43 -69 101 -185 270 -542 420 -981
470 -1375 11 -83 19 -267 24 -543 4 -229 10 -420 13 -422 19 -19 41 443 35
710 -9 345 -37 572 -104 838 -78 315 -166 520 -381 887 -17 29 145 -134 338
-341 507 -543 816 -955 1014 -1354 112 -224 193 -445 335 -905 l20 -65 -5 55
c-19 189 -103 512 -191 735 -203 514 -507 955 -1063 1543 -323 342 -395 421
-473 518 -95 118 -140 189 -166 263 -17 50 -19 51 -25 25z"/>
<path d="M3230 6309 c-129 -103 -299 -211 -465 -295 -169 -85 -302 -133 -450
-163 -78 -16 -86 -20 -60 -26 48 -12 87 -54 80 -86 -15 -68 162 -143 467 -197
l107 -19 54 56 c49 51 76 96 65 106 -2 3 -51 11 -108 20 -56 8 -124 21 -149
27 -52 12 -121 45 -121 56 1 4 50 40 110 80 163 109 335 240 423 322 74 69
133 148 125 169 -1 6 -37 -17 -78 -50z"/>
<path d="M1948 5843 c7 -3 16 -2 19 1 4 3 -2 6 -13 5 -11 0 -14 -3 -6 -6z"/>
<path d="M2143 5823 c15 -2 39 -2 55 0 15 2 2 4 -28 4 -30 0 -43 -2 -27 -4z"/>
</g>
</svg>
